# xmcd CD database file
#
# Track frame offsets:
#	150
#	15508
#	29917
#	46348
#	64403
#	83488
#	97115
#	113456
#	127297
#	141671
#	159566
#
# Disc length: 2313 seconds
#
# Revision: 1
# Processed by: cddbd v1.5.2PL0 Copyright (c) Steve Scherf et al.
# Submitted via: CDex 1.51
#
DISCID=9c09070b
DTITLE=Fredrika Stahl - Tributaries
DYEAR=2008
DGENRE=Jazz
TTITLE0=Monumental Mismatch
TTITLE1=So High
TTITLE2=Pourquoi pas moi
TTITLE3=Irreplaceable
TTITLE4=Stuck on a stranger
TTITLE5=Oh sunny sunny day
TTITLE6=One man show
TTITLE7=I'll win your heart
TTITLE8=Dina Oegon Bla
TTITLE9=The damage is done
TTITLE10=One Man Show
EXTD=YEAR: 2008
EXTT0=
EXTT1=
EXTT2=
EXTT3=
EXTT4=
EXTT5=
EXTT6=
EXTT7=
EXTT8=
EXTT9=
EXTT10=
PLAYORDER=
